<svg width="34" height="36" viewBox="0 0 34 36" fill="none" xmlns="http://www.w3.org/2000/svg">
<path d="M30.7265 35.325C29.9075 35.675 29.0019 35.7701 28.128 35.5978C27.2541 35.4255 26.4524 34.9938 25.8275 34.359L17 25.5795L8.17254 34.359C7.76094 34.7766 7.27061 35.1084 6.72991 35.3353C6.18921 35.5621 5.60889 35.6794 5.02254 35.6805C4.41983 35.6788 3.82341 35.5579 3.26754 35.325C2.44177 34.9908 1.73596 34.4154 1.24225 33.6739C0.748543 32.9324 0.48988 32.0593 0.500038 31.1685V7.5C0.502419 5.51161 1.29336 3.60534 2.69937 2.19933C4.10538 0.793323 6.01165 0.00238179 8.00004 0L26 0C27.9884 0.00238179 29.8947 0.793323 31.3007 2.19933C32.7067 3.60534 33.4977 5.51161 33.5 7.5V31.1685C33.5097 32.06 33.2502 32.9336 32.7553 33.6752C32.2605 34.4167 31.5534 34.9918 30.7265 35.325Z" fill="#8B5C00"/>
</svg>
